<svg xmlns="http://www.w3.org/2000/svg" xmlns:xlink="http://www.w3.org/1999/xlink" width="1920" height="823" viewBox="0 0 1920 823"><defs><style>.cls-1{opacity:0.85;}.cls-2{fill:#2b2b2b;}.cls-3{fill:#fffdfd;}.cls-4,.cls-6{fill:none;}.cls-4,.cls-5,.cls-6{stroke:#fff;stroke-miterlimit:10;}.cls-5{fill:#fff;}.cls-6{stroke-width:3px;}</style></defs><title>coverklar</title><g id="Layer_1" data-name="Layer 1"><image class="cls-1" width="1920" height="823" transform="translate(0 0)" xlink:href="coverrettet.jpg"/></g><g id="logo"><ellipse cx="976.24" cy="411.5" rx="230.55" ry="225.44"/><path class="cls-2" d="M971.27,290.93a1.94,1.94,0,0,1-.24,2.78L949.3,311.57a2.06,2.06,0,0,1-2.85-.25L917,277.05a2,2,0,0,1,.25-2.79L939,256.41a2.06,2.06,0,0,1,2.85.24Z" transform="translate(-2.43 0)"/><path class="cls-3" d="M965,295a2,2,0,0,1-.25,2.79L943,315.68a2.06,2.06,0,0,1-2.85-.25L910.7,281.16a2,2,0,0,1,.24-2.79l21.73-17.86a2.06,2.06,0,0,1,2.85.25Z" transform="translate(-2.43 0)"/><path class="cls-4" d="M965,295a2,2,0,0,1-.25,2.79L943,315.68a2.06,2.06,0,0,1-2.85-.25L910.7,281.16a2,2,0,0,1,.24-2.79l21.73-17.86a2.06,2.06,0,0,1,2.85.25Z" transform="translate(-2.43 0)"/><path class="cls-2" d="M946.68,311.59c13.67-.46,23.68,13.28,24,13.72l0,0,31.9,36.2a.42.42,0,0,0,.57,0l7.37-6.18a.39.39,0,0,0,0-.56L978.24,318l0,0c-.27-.26-9.82-9.63-6.93-27" transform="translate(-2.43 0)"/><path d="M938.3,304.26a1.76,1.76,0,0,1,.19,2.43,1.84,1.84,0,0,1-2.41-.61l-23.85-27.75a1.75,1.75,0,0,1-.2-2.43,1.84,1.84,0,0,1,2.41.61Z" transform="translate(-2.43 0)"/><path class="cls-5" d="M940.39,315.7c13.66-.47,23.68,13.28,24,13.72l0,0,31.91,36.19a.4.4,0,0,0,.57,0l7.36-6.18a.39.39,0,0,0,0-.55L971.94,322.1l0,0c-.27-.27-9.82-9.63-6.93-27" transform="translate(-2.43 0)"/><path d="M944,299.54a1.74,1.74,0,0,1,.2,2.42,1.84,1.84,0,0,1-2.41-.61L918,273.6a1.76,1.76,0,0,1-.2-2.43,1.84,1.84,0,0,1,2.41.61Z" transform="translate(-2.43 0)"/><path d="M950.12,294.54a1.75,1.75,0,0,1,.2,2.43,1.85,1.85,0,0,1-2.41-.61L924.05,268.6a1.74,1.74,0,0,1-.19-2.42,1.84,1.84,0,0,1,2.41.61Z" transform="translate(-2.43 0)"/><path d="M955.81,289.87a1.74,1.74,0,0,1,.2,2.42,1.84,1.84,0,0,1-2.41-.6l-23.86-27.76a1.77,1.77,0,0,1-.2-2.43,1.85,1.85,0,0,1,2.41.61Z" transform="translate(-2.43 0)"/><path d="M944.59,300.16a1.74,1.74,0,0,1,.2,2.42,1.84,1.84,0,0,1-2.41-.61l-23.86-27.75a1.76,1.76,0,0,1-.19-2.43,1.84,1.84,0,0,1,2.4.61Z" transform="translate(-2.43 0)"/><path d="M950.34,295.43a1.76,1.76,0,0,1,.2,2.42,1.84,1.84,0,0,1-2.41-.6l-23.86-27.76a1.75,1.75,0,0,1-.2-2.43,1.85,1.85,0,0,1,2.41.61Z" transform="translate(-2.43 0)"/><path d="M956.42,290.44a1.74,1.74,0,0,1,.2,2.42,1.84,1.84,0,0,1-2.41-.61L930.35,264.5a1.76,1.76,0,0,1-.2-2.43,1.85,1.85,0,0,1,2.41.61Z" transform="translate(-2.43 0)"/><path d="M962.11,285.76a1.76,1.76,0,0,1,.2,2.43,1.85,1.85,0,0,1-2.41-.61L936,259.82a1.74,1.74,0,0,1-.2-2.42,1.84,1.84,0,0,1,2.41.6Z" transform="translate(-2.43 0)"/><path class="cls-2" d="M986.67,299.94c2,13.23-10.82,24.52-11.23,24.86l0,0-33.17,35.09a.4.4,0,0,0,0,.56l7.11,6.45a.42.42,0,0,0,.58,0l33.79-35.58,0,0c.23-.3,8.67-10.63,26.67-9.79" transform="translate(-2.43 0)"/><ellipse class="cls-2" cx="1011.89" cy="295.8" rx="30.58" ry="21.84" transform="translate(80.98 795.16) rotate(-44.57)"/><path class="cls-5" d="M981.34,295c2,13.22-10.82,24.51-11.23,24.85l0,0L936.91,355a.4.4,0,0,0,0,.56L944,362a.43.43,0,0,0,.58,0l33.79-35.59v0c.24-.3,8.68-10.63,26.68-9.79" transform="translate(-2.43 0)"/><ellipse class="cls-5" cx="1006.56" cy="290.86" rx="30.58" ry="21.84" transform="translate(82.91 790) rotate(-44.57)"/><path class="cls-5" d="M870,396.31c2-.09,3.89-.13,5.79-.13a32.32,32.32,0,0,1,6,.59,22.57,22.57,0,0,1,6.29,2.19,17.5,17.5,0,0,1,5.28,4.12,18.94,18.94,0,0,1,3.51,6.63,32.73,32.73,0,0,1,1.34,10,27,27,0,0,1-2,10.56,16.66,16.66,0,0,1-5.38,7.16,26.42,26.42,0,0,1-16,4.84c-2.18,0-4.48-.09-6.88-.27h-3.35v-45.7Zm.2,45.18c.94.09,2.12.13,3.55.13s2.49,0,3.21-.06a16.83,16.83,0,0,0,2.94-.56,14.5,14.5,0,0,0,6.85-3.86,16.31,16.31,0,0,0,3.05-3.95q2.86-5.37,2.87-14a32.65,32.65,0,0,0-1.54-10.62,18.91,18.91,0,0,0-3.51-6.64,14.47,14.47,0,0,0-4.78-3.43,16.28,16.28,0,0,0-4.48-1.47,33.78,33.78,0,0,0-3.88-.2c-1.47,0-2.9.07-4.28.2Z" transform="translate(-2.43 0)"/><path class="cls-5" d="M920.14,442.28q-7,0-11.47-3.93t-4.41-12.09q0-8.17,4.58-12.69a15.88,15.88,0,0,1,11.64-4.51q7,0,11.46,3.92t4.42,12.1q0,8.18-4.58,12.68A15.92,15.92,0,0,1,920.14,442.28Zm.44-32.7a10.17,10.17,0,0,0-8.43,4.42q-3.35,4.41-3.34,12.29T911.88,438a10,10,0,0,0,8.16,3.79,10.18,10.18,0,0,0,8.43-4.41q3.35-4.41,3.34-12.29t-3.08-11.68A10,10,0,0,0,920.58,409.58Z" transform="translate(-2.43 0)"/><path class="cls-5" d="M980.69,416.84c0-2.66-.35-4.53-1.07-5.62s-2.07-1.64-4.08-1.64a9.59,9.59,0,0,0-7.12,3.27q-3.1,3.27-3.11,5.89V442h-4.68V416.84q0-4-1.07-5.62T955,409.58a9.24,9.24,0,0,0-6.58,3.14c-2.08,2.09-3.2,4-3.38,5.82V442h-4.68V409.32h4.68v7.39a12.93,12.93,0,0,1,4-5.23,9.71,9.71,0,0,1,6.42-2.42,20.87,20.87,0,0,1,5.65.62,5.14,5.14,0,0,1,3,1.93,6.66,6.66,0,0,1,1.07,2.29,13.94,13.94,0,0,1,.2,2.74,13,13,0,0,1,3.88-5.19,9.1,9.1,0,0,1,6-2.39,20.4,20.4,0,0,1,5.15.52,10,10,0,0,1,2.91,1.18,4.13,4.13,0,0,1,1.47,1.9,7.71,7.71,0,0,1,.57,2c0,.53.06,1.27.06,2.23v20.46a4.74,4.74,0,0,0,.77,2.91,2.33,2.33,0,0,0,1.57,1.08l.74.13h2.07V442h-4.08a6.51,6.51,0,0,1-4.18-1.17,3.48,3.48,0,0,1-1.5-2.36l-.07-1.11Z" transform="translate(-2.43 0)"/><path class="cls-5" d="M994,402a2.66,2.66,0,0,1-.8-2,2.77,2.77,0,0,1,.8-2,2.72,2.72,0,0,1,2-.82,2.84,2.84,0,0,1,2,.82,2.72,2.72,0,0,1,.83,2,2.61,2.61,0,0,1-.83,2,2.89,2.89,0,0,1-2,.78A2.77,2.77,0,0,1,994,402Zm5.35,40a6.49,6.49,0,0,1-4.18-1.17,3.45,3.45,0,0,1-1.5-2.36l-.07-1.11V409.32h4.68v28.05a4.74,4.74,0,0,0,.77,2.91,2.29,2.29,0,0,0,1.5,1.08l.81.13h2.07V442Z" transform="translate(-2.43 0)"/><path class="cls-5" d="M1035.19,442a6.49,6.49,0,0,1-4.18-1.17,3.45,3.45,0,0,1-1.5-2.36l-.07-1.11V416.84q0-5.16-2.74-6.6a8.18,8.18,0,0,0-3.48-.66,10.8,10.8,0,0,0-7.69,3.3q-3.4,3.31-3.41,5.92V442h-4.68V409.32h4.68v7.45a13.3,13.3,0,0,1,4.21-5.26,10.64,10.64,0,0,1,6.76-2.45,21.34,21.34,0,0,1,6,.69,7,7,0,0,1,3.38,1.92,8,8,0,0,1,1.67,5.24v20.46a4.74,4.74,0,0,0,.77,2.91,2.31,2.31,0,0,0,1.57,1.08l.74.13h2.07V442Z" transform="translate(-2.43 0)"/><path class="cls-5" d="M1044.08,402a2.66,2.66,0,0,1-.8-2,2.77,2.77,0,0,1,.8-2,2.74,2.74,0,0,1,2-.82,2.84,2.84,0,0,1,2,.82,2.69,2.69,0,0,1,.84,2,2.59,2.59,0,0,1-.84,2,2.89,2.89,0,0,1-2,.78A2.78,2.78,0,0,1,1044.08,402Zm5.36,40a6.47,6.47,0,0,1-4.18-1.17,3.47,3.47,0,0,1-1.51-2.36l-.07-1.11V409.32h4.69v28.05a4.74,4.74,0,0,0,.76,2.91,2.32,2.32,0,0,0,1.51,1.08l.8.13h2.07V442Z" transform="translate(-2.43 0)"/><path class="cls-5" d="M1071.17,409.58q-4.76,0-7.93,4.45t-3.17,12.29q0,7.85,2.91,11.64a9.18,9.18,0,0,0,7.65,3.79,26.78,26.78,0,0,0,10.57-2l.2.46a28.16,28.16,0,0,1-11.1,2,14.89,14.89,0,0,1-10.57-3.93q-4.21-3.92-4.21-12.09t4.41-12.69a16,16,0,0,1,18.29-2.81,10.37,10.37,0,0,1,4.78,5.16h-4.28a9.29,9.29,0,0,0-3-4.77A7.26,7.26,0,0,0,1071.17,409.58Z" transform="translate(-2.43 0)"/><path class="cls-5" d="M870,474.77c2-.08,3.89-.13,5.79-.13a33.19,33.19,0,0,1,6,.59,22.89,22.89,0,0,1,6.29,2.19,17.65,17.65,0,0,1,5.28,4.12,19,19,0,0,1,3.51,6.64,32.71,32.71,0,0,1,1.34,10,27,27,0,0,1-2,10.56,16.55,16.55,0,0,1-5.38,7.16,26.36,26.36,0,0,1-16,4.84c-2.18,0-4.48-.08-6.88-.26h-3.35V474.77Zm.2,45.19c.94.09,2.12.13,3.55.13s2.49,0,3.21-.07a18.43,18.43,0,0,0,6.42-1.89,17,17,0,0,0,6.42-6.48q2.86-5.36,2.87-14A32.6,32.6,0,0,0,891.15,487a18.91,18.91,0,0,0-3.51-6.64,14.47,14.47,0,0,0-4.78-3.43,16.37,16.37,0,0,0-4.48-1.48,34,34,0,0,0-3.88-.19c-1.47,0-2.9.06-4.28.19Z" transform="translate(-2.43 0)"/><path class="cls-5" d="M908.14,504.53q0,8.1,2.91,11.9a9.18,9.18,0,0,0,7.65,3.79,33.65,33.65,0,0,0,11.91-2l.2.46a33.91,33.91,0,0,1-12.07,2,15.4,15.4,0,0,1-10.94-3.92q-4.2-3.93-4.21-12.1T908,492a15.05,15.05,0,0,1,11.24-4.51,13.7,13.7,0,0,1,9.23,3.2q3.74,3.21,3.74,9.48v.66H908.34A33.12,33.12,0,0,0,908.14,504.53Zm17.05-13.47a7.6,7.6,0,0,0-6.22-3,9,9,0,0,0-6.79,3.27,16.42,16.42,0,0,0-3.77,9h19.25C927.62,496.16,926.79,493.06,925.19,491.06Z" transform="translate(-2.43 0)"/><path class="cls-5" d="M981,520.74q-12.51,0-18.52-6.93a18.91,18.91,0,0,1-3.48-6.6,32.73,32.73,0,0,1-1.34-10,27,27,0,0,1,2-10.56,17,17,0,0,1,5.39-7.22,26.6,26.6,0,0,1,16-4.78,32.07,32.07,0,0,1,5.22.43A23.89,23.89,0,0,1,990,476l1.2.46-.2.65a27.66,27.66,0,0,0-10-1.76,16.51,16.51,0,0,0-11.84,4.51q-3.6,3.33-5.08,9.81a39.35,39.35,0,0,0-.87,9,29.74,29.74,0,0,0,1.54,9.77,19.24,19.24,0,0,0,3.51,6.64,14.57,14.57,0,0,0,4.78,3.43,16.28,16.28,0,0,0,4.48,1.47,35.14,35.14,0,0,0,9.43-.26c2-.3,3.52-.59,4.55-.85l1.54-.46.2.66A37.69,37.69,0,0,1,981,520.74Z" transform="translate(-2.43 0)"/><path class="cls-5" d="M1012.76,520.74q-7.07,0-11.47-3.92t-4.41-12.1q0-8.18,4.58-12.68a15.87,15.87,0,0,1,11.63-4.51q7,0,11.47,3.92t4.41,12.1q0,8.18-4.58,12.68A15.87,15.87,0,0,1,1012.76,520.74Zm.43-32.69a10.15,10.15,0,0,0-8.42,4.41c-2.23,3-3.35,7-3.35,12.3s1,9.14,3.08,11.67a10,10,0,0,0,8.16,3.79,10.18,10.18,0,0,0,8.42-4.41c2.23-2.95,3.35-7,3.35-12.3s-1-9.14-3.08-11.67A10,10,0,0,0,1013.19,488.05Z" transform="translate(-2.43 0)"/><path class="cls-5" d="M1050,488.05q-4.76,0-7.92,4.45t-3.18,12.29q0,7.84,2.91,11.64a9.18,9.18,0,0,0,7.65,3.79,26.78,26.78,0,0,0,10.57-2l.2.46a28.09,28.09,0,0,1-11.1,2,14.86,14.86,0,0,1-10.56-3.92q-4.21-3.93-4.22-12.1t4.42-12.68a15,15,0,0,1,11.23-4.51,14.86,14.86,0,0,1,7,1.7,10.39,10.39,0,0,1,4.79,5.16h-4.28a9.32,9.32,0,0,0-3-4.77A7.2,7.2,0,0,0,1050,488.05Z" transform="translate(-2.43 0)"/><path class="cls-5" d="M1081,520.74q-7,0-11.47-3.92t-4.41-12.1q0-8.18,4.58-12.68a15.88,15.88,0,0,1,11.64-4.51q7.05,0,11.46,3.92t4.42,12.1q0,8.18-4.58,12.68A15.91,15.91,0,0,1,1081,520.74Zm.44-32.69a10.18,10.18,0,0,0-8.43,4.41c-2.23,3-3.34,7-3.34,12.3s1,9.14,3.07,11.67a10,10,0,0,0,8.16,3.79,10.18,10.18,0,0,0,8.43-4.41c2.22-2.95,3.34-7,3.34-12.3s-1-9.14-3.08-11.67A10,10,0,0,0,1081.47,488.05Z" transform="translate(-2.43 0)"/><ellipse class="cls-6" cx="974.92" cy="410.32" rx="195.71" ry="201.4"/></g></svg>
