<svg xmlns="http://www.w3.org/2000/svg" width="271.72" height="266.9" viewBox="0 0 271.72 266.9"><defs><style>.cls-1{fill:#444343;}.cls-2{fill:#fffdfd;}.cls-3,.cls-5{fill:none;}.cls-3,.cls-4,.cls-5{stroke:#fff;stroke-miterlimit:10;}.cls-4{fill:#fff;}.cls-5{stroke-width:3px;}</style></defs><title>logo</title><g id="logo"><ellipse cx="133.42" cy="132.58" rx="105.06" ry="102.73"/><path class="cls-1" d="M131.48,73.29a2,2,0,0,1-.24,2.79L123,82.83a2.06,2.06,0,0,1-2.85-.25l-12-14a2,2,0,0,1,.24-2.79l8.22-6.75a2.06,2.06,0,0,1,2.85.24Z"/><path class="cls-2" d="M128.61,75.16a2,2,0,0,1-.24,2.79l-8.22,6.75a2.05,2.05,0,0,1-2.84-.24l-12-14a2,2,0,0,1,.24-2.79L113.76,61a2.06,2.06,0,0,1,2.85.24Z"/><path class="cls-3" d="M128.61,75.16a2,2,0,0,1-.24,2.79l-8.22,6.75a2.05,2.05,0,0,1-2.84-.24l-12-14a2,2,0,0,1,.24-2.79L113.76,61a2.06,2.06,0,0,1,2.85.24Z"/><path class="cls-1" d="M121,83.53c6.23-.21,10.79,6,10.93,6.25v0l14.54,16.5a.18.18,0,0,0,.25,0l3.36-2.81a.18.18,0,0,0,0-.26L135.37,86.45h0c-.12-.12-4.47-4.39-3.16-12.32"/><path d="M116.46,79.37c.71.83,1.07,1.7.8,1.93s-1.09-.27-1.81-1.1L106,69.2c-.72-.84-1.08-1.7-.8-1.93s1.09.27,1.8,1.1Z"/><path class="cls-4" d="M118.12,85.4c6.23-.21,10.79,6.06,10.93,6.26h0l14.54,16.5a.2.2,0,0,0,.26,0l3.35-2.82a.17.17,0,0,0,0-.25L132.5,88.32h0c-.12-.12-4.47-4.39-3.16-12.31"/><path d="M119.07,77.21c.72.84,1.08,1.71.8,1.93s-1.09-.27-1.8-1.1l-9.46-11c-.71-.83-1.07-1.7-.8-1.93s1.1.27,1.81,1.11Z"/><path d="M121.85,74.94c.71.83,1.07,1.7.8,1.93s-1.09-.27-1.81-1.1l-9.45-11c-.72-.84-1.08-1.7-.8-1.93s1.09.27,1.8,1.1Z"/><path d="M124.44,72.81c.72.83,1.08,1.7.8,1.93s-1.09-.27-1.81-1.1l-9.45-11c-.72-.84-1.08-1.7-.8-1.93s1.09.27,1.81,1.1Z"/><path d="M119.33,77.5c.71.83,1.07,1.7.8,1.93s-1.09-.27-1.81-1.11l-9.45-11c-.72-.84-1.08-1.71-.8-1.93s1.09.26,1.8,1.1Z"/><path d="M121.94,75.34c.72.83,1.08,1.7.8,1.93s-1.09-.27-1.8-1.1l-9.46-11c-.71-.83-1.07-1.7-.8-1.93s1.09.27,1.81,1.1Z"/><path d="M124.72,73.07c.71.83,1.07,1.7.8,1.93s-1.1-.27-1.81-1.11l-9.45-11c-.72-.84-1.08-1.71-.8-1.93s1.09.26,1.8,1.1Z"/><path d="M127.31,70.94c.71.83,1.07,1.7.8,1.93s-1.09-.27-1.81-1.11l-9.45-11c-.72-.84-1.08-1.71-.8-1.93s1.09.26,1.81,1.1Z"/><path class="cls-1" d="M139.21,78.22c.92,6-4.93,11.17-5.12,11.33h0l-15.12,16a.19.19,0,0,0,0,.26l3.24,2.94a.2.2,0,0,0,.27,0l15.39-16.22h0c.11-.14,4-4.85,12.16-4.47"/><ellipse class="cls-1" cx="150.7" cy="76.34" rx="13.93" ry="9.95" transform="translate(-10.23 127.71) rotate(-44.57)"/><path class="cls-4" d="M136.78,76c.92,6-4.93,11.17-5.12,11.33h0l-15.12,16a.2.2,0,0,0,0,.26l3.25,2.94a.19.19,0,0,0,.26,0l15.4-16.22h0c.11-.14,4-4.85,12.16-4.47"/><ellipse class="cls-4" cx="148.28" cy="74.09" rx="13.93" ry="9.95" transform="translate(-9.35 125.36) rotate(-44.57)"/><path class="cls-4" d="M82.49,125.08c.89,0,1.77-.06,2.63-.06a15,15,0,0,1,2.75.27,10.28,10.28,0,0,1,2.86,1,8,8,0,0,1,2.41,1.87,8.83,8.83,0,0,1,1.6,3,15.07,15.07,0,0,1,.61,4.56,12.24,12.24,0,0,1-.9,4.81A7.49,7.49,0,0,1,92,143.82,12,12,0,0,1,84.71,146c-1,0-2,0-3.14-.12H80.05V125.08Zm.09,20.59c.42,0,1,.06,1.61.06s1.14,0,1.47,0a7.41,7.41,0,0,0,1.34-.25,7.85,7.85,0,0,0,1.58-.61,7.22,7.22,0,0,0,1.54-1.15,7.58,7.58,0,0,0,1.39-1.8,13.54,13.54,0,0,0,1.31-6.38,15.12,15.12,0,0,0-.7-4.84,8.81,8.81,0,0,0-1.6-3,6.78,6.78,0,0,0-2.18-1.56,7.49,7.49,0,0,0-2-.67,15.33,15.33,0,0,0-1.77-.09q-1,0-2,.09Z"/><path class="cls-4" d="M105.33,146a7.58,7.58,0,0,1-5.23-1.79q-2-1.78-2-5.51a7.7,7.7,0,0,1,2.09-5.78,7.23,7.23,0,0,1,5.3-2.06,7.57,7.57,0,0,1,5.22,1.79q2,1.78,2,5.51a7.74,7.74,0,0,1-2.08,5.78A7.25,7.25,0,0,1,105.33,146Zm.19-14.9a4.65,4.65,0,0,0-3.84,2,9.13,9.13,0,0,0-1.52,5.6q0,3.6,1.4,5.32a4.57,4.57,0,0,0,3.72,1.73,4.65,4.65,0,0,0,3.84-2,9.13,9.13,0,0,0,1.52-5.6q0-3.6-1.4-5.32A4.55,4.55,0,0,0,105.52,131.13Z"/><path class="cls-4" d="M132.92,134.44a5,5,0,0,0-.49-2.57,2.07,2.07,0,0,0-1.86-.74,4.36,4.36,0,0,0-3.24,1.49,4.16,4.16,0,0,0-1.42,2.68v10.61h-2.13V134.44a5,5,0,0,0-.49-2.57,2.36,2.36,0,0,0-2.07-.74,4.24,4.24,0,0,0-3,1.43,4.67,4.67,0,0,0-1.53,2.65v10.7h-2.14V131h2.14v3.37a5.88,5.88,0,0,1,1.79-2.39,4.47,4.47,0,0,1,2.93-1.1,9.73,9.73,0,0,1,2.57.28,2.39,2.39,0,0,1,1.36.88,3.21,3.21,0,0,1,.49,1,6.6,6.6,0,0,1,.09,1.25,5.73,5.73,0,0,1,1.77-2.37,4.12,4.12,0,0,1,2.74-1.09,9.32,9.32,0,0,1,2.35.24,4.56,4.56,0,0,1,1.32.54,1.83,1.83,0,0,1,.67.86,3.56,3.56,0,0,1,.26.92q0,.36,0,1v9.32a2.19,2.19,0,0,0,.35,1.33,1,1,0,0,0,.72.49l.33.06h1v.24h-1.86a3,3,0,0,1-1.91-.54,1.57,1.57,0,0,1-.68-1.07l0-.51Z"/><path class="cls-4" d="M139,127.67a1.2,1.2,0,0,1-.36-.89,1.26,1.26,0,0,1,.36-.91,1.24,1.24,0,0,1,.92-.37,1.29,1.29,0,0,1,.93.37,1.24,1.24,0,0,1,.38.91,1.18,1.18,0,0,1-.38.89,1.32,1.32,0,0,1-.93.36A1.27,1.27,0,0,1,139,127.67Zm2.44,18.24a2.91,2.91,0,0,1-1.9-.54,1.55,1.55,0,0,1-.69-1.07l0-.51V131h2.13v12.78a2.19,2.19,0,0,0,.35,1.33,1.06,1.06,0,0,0,.69.49l.36.06h.95v.24Z"/><path class="cls-4" d="M157.75,145.91a2.91,2.91,0,0,1-1.9-.54,1.55,1.55,0,0,1-.69-1.07l0-.51v-9.35c0-1.57-.42-2.57-1.25-3a3.68,3.68,0,0,0-1.58-.3,4.94,4.94,0,0,0-3.51,1.5,4.16,4.16,0,0,0-1.55,2.7v10.58h-2.13V131h2.13v3.4a6,6,0,0,1,1.92-2.4,4.79,4.79,0,0,1,3.08-1.12,10.12,10.12,0,0,1,2.72.31,3.18,3.18,0,0,1,1.54.88,3.62,3.62,0,0,1,.76,2.39v9.32a2.13,2.13,0,0,0,.36,1.33,1,1,0,0,0,.71.49l.34.06h.94v.24Z"/><path class="cls-4" d="M161.81,127.67a1.17,1.17,0,0,1-.37-.89,1.23,1.23,0,0,1,.37-.91,1.2,1.2,0,0,1,.91-.37,1.27,1.27,0,0,1,.93.37,1.24,1.24,0,0,1,.38.91,1.18,1.18,0,0,1-.38.89,1.31,1.31,0,0,1-.93.36A1.23,1.23,0,0,1,161.81,127.67Zm2.43,18.24a2.93,2.93,0,0,1-1.9-.54,1.55,1.55,0,0,1-.69-1.07l0-.51V131h2.14v12.78a2.13,2.13,0,0,0,.35,1.33,1,1,0,0,0,.68.49l.37.06h.94v.24Z"/><path class="cls-4" d="M174.15,131.13a4.29,4.29,0,0,0-3.61,2,9.44,9.44,0,0,0-1.45,5.6,8.71,8.71,0,0,0,1.32,5.3,4.21,4.21,0,0,0,3.49,1.73,12.33,12.33,0,0,0,4.82-.89l.09.2a12.73,12.73,0,0,1-5.06.93,6.77,6.77,0,0,1-4.81-1.79q-1.92-1.78-1.92-5.51a7.91,7.91,0,0,1,2-5.78,6.85,6.85,0,0,1,5.12-2.06,6.77,6.77,0,0,1,3.21.78,4.72,4.72,0,0,1,2.18,2.35h-1.95a4.19,4.19,0,0,0-1.39-2.17A3.27,3.27,0,0,0,174.15,131.13Z"/><path class="cls-4" d="M82.49,160.84c.89,0,1.77-.06,2.63-.06a15,15,0,0,1,2.75.27,10.25,10.25,0,0,1,2.86,1,8.16,8.16,0,0,1,2.41,1.88,8.74,8.74,0,0,1,1.6,3,15,15,0,0,1,.61,4.55,12.29,12.29,0,0,1-.9,4.82A7.49,7.49,0,0,1,92,179.58a12,12,0,0,1-7.28,2.2c-1,0-2,0-3.14-.11H80.05V160.84Zm.09,20.59c.42,0,1,.06,1.61.06s1.14,0,1.47,0A7.61,7.61,0,0,0,87,181.2a7.3,7.3,0,0,0,1.58-.61,7.56,7.56,0,0,0,2.93-3,13.49,13.49,0,0,0,1.31-6.37,15.23,15.23,0,0,0-.7-4.85,8.75,8.75,0,0,0-1.6-3,6.49,6.49,0,0,0-2.18-1.56,7.16,7.16,0,0,0-2-.67,15.33,15.33,0,0,0-1.77-.09q-1,0-2,.09Z"/><path class="cls-4" d="M99.86,174.39q0,3.71,1.32,5.43a4.19,4.19,0,0,0,3.49,1.73,15.21,15.21,0,0,0,5.42-.9l.1.21a15.37,15.37,0,0,1-5.5.92,7,7,0,0,1-5-1.78q-1.92-1.78-1.92-5.52a7.92,7.92,0,0,1,2-5.78,6.87,6.87,0,0,1,5.12-2,6.22,6.22,0,0,1,4.21,1.46,5.36,5.36,0,0,1,1.71,4.32v.3H100A14.85,14.85,0,0,0,99.86,174.39Zm7.77-6.13a3.47,3.47,0,0,0-2.84-1.37,4.05,4.05,0,0,0-3.09,1.49,7.39,7.39,0,0,0-1.72,4.11h8.77A6.83,6.83,0,0,0,107.63,168.26Z"/><path class="cls-4" d="M133,181.78q-5.7,0-8.44-3.15a8.8,8.8,0,0,1-1.59-3,15.07,15.07,0,0,1-.61-4.56,12.24,12.24,0,0,1,.9-4.81,7.8,7.8,0,0,1,2.46-3.3,12.11,12.11,0,0,1,7.28-2.17,14.42,14.42,0,0,1,2.38.19,11.67,11.67,0,0,1,1.73.4l.55.21-.09.3a12.43,12.43,0,0,0-4.57-.8,7.52,7.52,0,0,0-5.39,2,8.43,8.43,0,0,0-2.32,4.47,18.14,18.14,0,0,0-.4,4.08,13.86,13.86,0,0,0,.7,4.46,8.66,8.66,0,0,0,1.6,3,6.66,6.66,0,0,0,2.18,1.57,7.79,7.79,0,0,0,2.05.67,15.89,15.89,0,0,0,1.84.09,16.31,16.31,0,0,0,2.45-.21q1.38-.21,2.07-.39l.7-.21.1.3A17,17,0,0,1,133,181.78Z"/><path class="cls-4" d="M147.53,181.78A7.57,7.57,0,0,1,142.3,180q-2-1.78-2-5.52a7.76,7.76,0,0,1,2.09-5.78,7.24,7.24,0,0,1,5.3-2,7.55,7.55,0,0,1,5.23,1.79q2,1.78,2,5.51a7.76,7.76,0,0,1-2.09,5.78A7.24,7.24,0,0,1,147.53,181.78Zm.2-14.89a4.62,4.62,0,0,0-3.84,2,9.07,9.07,0,0,0-1.53,5.6,8.4,8.4,0,0,0,1.4,5.32,4.57,4.57,0,0,0,3.72,1.73,4.62,4.62,0,0,0,3.84-2,9.1,9.1,0,0,0,1.53-5.61,8.35,8.35,0,0,0-1.41-5.32A4.53,4.53,0,0,0,147.73,166.89Z"/><path class="cls-4" d="M164.49,166.89a4.28,4.28,0,0,0-3.61,2,9.46,9.46,0,0,0-1.45,5.6,8.72,8.72,0,0,0,1.32,5.31,4.21,4.21,0,0,0,3.49,1.73,12.15,12.15,0,0,0,4.82-.9l.09.21a12.73,12.73,0,0,1-5.06.92,6.77,6.77,0,0,1-4.81-1.78q-1.92-1.78-1.92-5.52a7.92,7.92,0,0,1,2-5.78,6.84,6.84,0,0,1,5.12-2,6.91,6.91,0,0,1,3.21.77,4.74,4.74,0,0,1,2.18,2.36h-1.95a4.22,4.22,0,0,0-1.39-2.18A3.25,3.25,0,0,0,164.49,166.89Z"/><path class="cls-4" d="M178.64,181.78a7.57,7.57,0,0,1-5.22-1.78q-2-1.78-2-5.52a7.76,7.76,0,0,1,2.09-5.78,7.24,7.24,0,0,1,5.3-2,7.53,7.53,0,0,1,5.23,1.79q2,1.78,2,5.51a7.76,7.76,0,0,1-2.09,5.78A7.24,7.24,0,0,1,178.64,181.78Zm.2-14.89a4.62,4.62,0,0,0-3.84,2,9.07,9.07,0,0,0-1.52,5.6c0,2.39.46,4.17,1.4,5.32a4.54,4.54,0,0,0,3.71,1.73,4.62,4.62,0,0,0,3.84-2,9.1,9.1,0,0,0,1.53-5.61,8.41,8.41,0,0,0-1.4-5.32A4.56,4.56,0,0,0,178.84,166.89Z"/><ellipse class="cls-5" cx="133.42" cy="132.58" rx="89.18" ry="91.77"/></g></svg>
